<svg width="253" height="488" viewBox="0 0 253 488" fill="none" xmlns="http://www.w3.org/2000/svg">
<path d="M176.078 128.647C178.408 98.7623 190.645 71.6145 204.53 45.2541C211.106 32.7794 202.926 21.1591 188.765 28.1979C184.394 30.3738 181.08 34.153 177.144 36.9856C147.117 60.5298 115.179 81.5183 82.8916 101.902C82.6766 102.038 82.4926 102.218 82.3512 102.43C82.2098 102.642 82.114 102.881 82.0702 103.131C82.0264 103.382 82.0354 103.639 82.0967 103.887C82.158 104.134 82.2702 104.365 82.4261 104.567C82.6934 104.921 83.0693 105.177 83.4963 105.297C83.9233 105.417 84.3778 105.393 84.7902 105.23C97.644 100.393 144.684 86.2613 162.338 63.3803C112.721 127.704 62.1303 175.845 14.0722 233.401C-44.839 301.253 -105.487 367.518 -167.87 432.196C-168.119 432.451 -168.259 432.792 -168.261 433.148C-168.262 433.503 -168.125 433.846 -167.879 434.102C-167.667 434.327 -167.376 434.461 -167.067 434.475C-166.758 434.489 -166.456 434.382 -166.225 434.176C-98.5443 374.604 -31.9549 313.419 28.7011 246.698C82.4285 187.604 121.806 139.712 164.261 85.032C148.547 105.278 164.705 146.473 170.172 160.717C170.35 161.184 170.683 161.576 171.114 161.829C171.545 162.081 172.05 162.178 172.544 162.104C173.24 161.99 173.874 161.635 174.334 161.1C174.794 160.565 175.05 159.886 175.059 159.18C175.265 148.728 175.267 138.513 176.078 128.647Z" fill="#FFC700"/>
<path d="M37.7847 172.104C8.99231 214.985 -25.8805 253.453 -65.7398 286.302C-65.9196 286.488 -66.1657 286.594 -66.424 286.598C-66.6824 286.602 -66.9317 286.504 -67.1173 286.324C-67.3028 286.144 -67.4094 285.898 -67.4135 285.64C-67.4176 285.382 -67.319 285.132 -67.1392 284.947C-35.3648 244.546 -0.800788 206.42 36.2994 170.848C36.4659 170.651 36.7038 170.528 36.9608 170.507C37.2178 170.485 37.4728 170.567 37.6698 170.733C37.8667 170.9 37.9895 171.138 38.0111 171.395C38.0326 171.652 37.9512 171.907 37.7847 172.104Z" fill="white"/>
</svg>
