<svg width="33" height="33" viewBox="0 0 33 33" fill="none" xmlns="http://www.w3.org/2000/svg">
<path fill-rule="evenodd" clip-rule="evenodd" d="M22.5531 32.7041V20.1185H26.7781L27.4103 15.2142H22.5515V12.0829C22.5515 10.6626 22.9464 9.6941 24.9841 9.6941H27.5809V5.3066C26.3233 5.17277 25.0593 5.10768 23.7946 5.1116C20.0506 5.1116 17.488 7.39798 17.488 11.5954V15.2142H13.25V20.1185H17.4864V32.7041H2.044C1.05275 32.7041 0.25 31.9014 0.25 30.9101V1.9981C0.25 1.00685 1.05275 0.204102 2.044 0.204102H30.956C31.9473 0.204102 32.75 1.00685 32.75 1.9981V30.9101C32.75 31.9014 31.9473 32.7041 30.956 32.7041H22.5531Z" fill="#9F40FE"/>
</svg>
