<svg width="35" height="36" viewBox="0 0 35 36" fill="none" xmlns="http://www.w3.org/2000/svg">
<path d="M33.0747 2.87937C31.7906 1.59527 30.2455 0.954102 28.4376 0.954102H6.56239C4.75449 0.954102 3.20937 1.59527 1.92527 2.87937C0.641173 4.16347 0 5.70859 0 7.51649V29.3917C0 31.1996 0.641173 32.7447 1.92527 34.0288C3.20937 35.3129 4.75449 35.9541 6.56239 35.9541H11.6672C12.0001 35.9541 12.2506 35.9418 12.4188 35.9191C12.6145 35.8798 12.7911 35.7755 12.9198 35.623C13.0862 35.4478 13.1703 35.1938 13.1703 34.861L13.1581 33.3106C13.1511 32.3225 13.1476 31.5412 13.1476 30.9631L12.622 31.0542C12.2892 31.1155 11.8687 31.1418 11.3589 31.1348C10.8276 31.125 10.2979 31.0717 9.77526 30.9754C9.21889 30.8726 8.69513 30.6384 8.24766 30.2922C7.77903 29.9376 7.4295 29.4488 7.24561 28.8907L7.01787 28.3651C6.82592 27.9506 6.58476 27.5606 6.29961 27.2037C5.97377 26.778 5.64267 26.4907 5.30807 26.3383L5.15041 26.2244C5.04047 26.1456 4.94047 26.0539 4.8526 25.9511C4.76867 25.8557 4.69957 25.7482 4.64763 25.6323C4.60208 25.5254 4.64062 25.4378 4.7615 25.3695C4.88413 25.2994 5.10311 25.2661 5.42369 25.2661L5.87917 25.3362C6.18224 25.3958 6.55889 25.578 7.00561 25.881C7.45769 26.1892 7.83533 26.5944 8.11102 27.067C8.46138 27.6889 8.88183 28.1637 9.37584 28.4913C9.86986 28.8171 10.3674 28.9818 10.8684 28.9818C11.3694 28.9818 11.8021 28.9432 12.1683 28.8679C12.5223 28.7947 12.8664 28.6794 13.1931 28.5245C13.3297 27.5085 13.7011 26.7237 14.309 26.1771C13.5214 26.0999 12.7407 25.9628 11.9738 25.7672C11.2254 25.5616 10.5057 25.2632 9.83132 24.879C9.12576 24.4948 8.50256 23.9758 7.99715 23.3514C7.51189 22.7435 7.11247 21.9464 6.80064 20.9601C6.49056 19.9721 6.33465 18.8316 6.33465 17.5405C6.33465 15.7028 6.93378 14.1384 8.13379 12.8456C7.5732 11.4651 7.62576 9.91476 8.29321 8.19971C8.73467 8.06131 9.38811 8.16467 10.2535 8.50628C11.1189 8.84789 11.7531 9.14045 12.156 9.3822C12.5589 9.62746 12.8813 9.83242 13.1248 9.99885C14.549 9.6025 16.0208 9.40327 17.4991 9.40673C19.004 9.40673 20.4615 9.60468 21.8752 9.99885L22.7406 9.45227C23.4063 9.0526 24.1084 8.71707 24.8376 8.45022C25.6434 8.1454 26.2566 8.06307 26.684 8.19971C27.3672 9.91651 27.4268 11.4651 26.8645 12.8473C28.0645 14.1384 28.6653 15.7028 28.6653 17.5423C28.6653 18.8334 28.5094 19.9773 28.1976 20.9706C27.8875 21.9657 27.4846 22.7628 26.9906 23.3636C26.4763 23.9801 25.8505 24.4941 25.1459 24.879C24.4101 25.2889 23.6954 25.585 23.0034 25.7672C22.2366 25.9635 21.4559 26.1011 20.6682 26.1788C21.4565 26.8621 21.8524 27.9394 21.8524 29.4127V34.861C21.8524 35.1185 21.8892 35.3269 21.9663 35.4864C22.0017 35.5632 22.0523 35.6321 22.1149 35.6889C22.1775 35.7458 22.2509 35.7895 22.3307 35.8175C22.4989 35.877 22.646 35.9156 22.7757 35.9296C22.9053 35.9471 23.091 35.9524 23.3328 35.9524H28.4376C30.2455 35.9524 31.7906 35.3112 33.0747 34.0271C34.3571 32.7447 35 31.1979 35 29.39V7.51649C35 5.70859 34.3588 4.16347 33.0747 2.87937Z" fill="#9F40FE"/>
</svg>
