<svg width="49" height="45" viewBox="0 0 49 45" fill="none" xmlns="http://www.w3.org/2000/svg">
<g clip-path="url(#clip0_37_48)">
<path d="M9.5606 17.9634C9.44207 17.9634 9.32354 17.9445 9.20776 17.9067C8.71158 17.7419 8.40009 17.2584 8.46625 16.7479C8.63164 15.4621 7.35535 14.1871 6.22516 13.2201C4.88272 12.0693 3.44104 10.9051 1.79261 10.2487C1.70165 10.2271 1.61344 10.192 1.5335 10.1514C1.44529 10.119 1.35432 10.0893 1.26335 10.0596C0.684476 9.87592 0.367472 9.26544 0.557674 8.69818C0.747877 8.13092 1.3681 7.82027 1.94698 8.00666C2.06276 8.04448 2.17853 8.0823 2.29431 8.12551C3.71394 8.10391 5.22729 7.25031 6.28581 5.85917C7.38568 4.41401 7.9618 2.58257 8.42214 0.815953C8.5517 0.30812 9.03686 -0.0322368 9.56612 0.000178074C10.0981 0.0379955 10.5282 0.440481 10.586 0.96182C10.972 4.43022 14.0317 7.54745 17.5519 8.06069C18.0536 8.13362 18.4395 8.5334 18.4891 9.03043C18.536 9.52476 18.2327 9.98937 17.7531 10.1514C14.5417 11.24 12.3778 14.2898 10.5171 17.4259C10.3159 17.7663 9.94928 17.9634 9.56336 17.9634H9.5606ZM5.11703 9.59769C6.04874 10.2271 6.89777 10.9294 7.67512 11.5939C8.50484 12.3043 9.3897 13.1579 9.98511 14.152C11.2421 12.2962 12.681 10.5945 14.4811 9.38159C12.3502 8.40104 10.564 6.70466 9.47791 4.65982C9.10577 5.53232 8.64542 6.37511 8.05276 7.15307C7.23407 8.22816 6.21965 9.06285 5.11978 9.60039L5.11703 9.59769Z" fill="#00FF57"/>
<path d="M27.5556 45C27.517 45 27.4784 45 27.4398 44.9946C26.9078 44.9406 26.4943 44.5192 26.4557 43.9979C26.0643 38.6035 25.4303 33.49 22.0232 30.2323C19.002 27.342 14.3985 26.5776 9.547 25.9941C8.94332 25.9212 8.51329 25.3809 8.58772 24.7893C8.60426 24.657 8.64561 24.5327 8.70625 24.4193C8.7669 23.8925 9.21622 23.4765 9.77304 23.463C14.3875 23.3496 18.9221 21.4641 22.2106 18.2874C25.4992 15.1135 27.4922 10.6997 27.6769 6.17778C27.7017 5.59971 28.1841 5.1432 28.7768 5.1405C29.3667 5.1405 29.8518 5.59431 29.8794 6.17238C30.0834 10.6132 32.0516 14.9919 35.2823 18.1902C38.4688 21.3453 42.9179 23.3631 47.4911 23.7305C48.0369 23.7737 48.4696 24.2059 48.5027 24.7434C48.5358 25.281 48.1609 25.7591 47.6234 25.8671C38.9898 27.5932 31.3514 34.9703 28.6196 44.2221C28.4818 44.6894 28.0463 45.0027 27.5611 45.0027L27.5556 45ZM15.3496 24.7245C18.4755 25.4187 21.3203 26.5397 23.5641 28.6845C26.4557 31.4506 27.6135 35.1513 28.1924 39.214C29.6699 36.1319 31.6794 33.301 34.1273 30.8779C36.7212 28.3118 39.6845 26.3399 42.8518 25.0514C39.4061 24.0303 36.2112 22.1853 33.711 19.711C31.4975 17.5203 29.8132 14.8299 28.7878 11.9287C27.7568 14.892 26.034 17.6229 23.7543 19.8245C21.4057 22.0908 18.492 23.771 15.3496 24.7245Z" fill="#00FF57"/>
</g>
<defs>
<clipPath id="clip0_37_48">
<rect width="48" height="45" fill="white" transform="translate(0.5)"/>
</clipPath>
</defs>
</svg>
