<svg width="33" height="41" viewBox="0 0 33 41" fill="none" xmlns="http://www.w3.org/2000/svg">
<path d="M31.6412 25.2413C25.7313 20.648 24.1342 12.3726 27.2088 5.59968C27.3842 5.27022 27.4905 4.90662 27.5211 4.53228C27.5516 4.15794 27.5057 3.78117 27.3863 3.4262C27.2668 3.07124 27.0765 2.74596 26.8275 2.4713C26.5785 2.19663 26.2764 1.97867 25.9407 1.83145C25.0195 0.156687 22.878 -0.803842 21.1254 0.88324C16.3386 5.60256 10.0101 8.30839 3.38368 8.46895C0.225338 8.53668 -1.29401 12.5081 1.36785 14.54C7.50508 19.2256 9.83794 28.5354 6.26687 35.61C4.99276 38.1284 7.31365 42.5246 10.3643 40.4681C13.415 38.4116 15.5624 35.4438 18.3021 32.907C21.3228 30.1116 25.0075 30.1855 28.776 31.1337C32.2394 32.0142 34.6321 27.5872 31.6412 25.2413ZM17.8833 25.2413C16.5578 25.8878 15.3451 26.7553 14.2943 27.8088C14.2358 22.9488 12.7374 18.2229 9.99944 14.2629C13.2551 13.5196 16.383 12.2741 19.2771 10.5686C18.9046 15.2611 19.9492 19.9576 22.2679 24.016C20.7407 24.1772 19.2484 24.5887 17.8474 25.2351L17.8833 25.2413Z" fill="#FF9900"/>
</svg>
