<svg width="114" height="115" viewBox="0 0 114 115" fill="none" xmlns="http://www.w3.org/2000/svg">
<path d="M8.3915 56.843C12.2639 70.6778 27.8814 80.4202 40.6285 84.7574C54.87 89.6093 70.3627 89.3085 84.4051 83.9076C89.6496 81.9113 87.0094 74.9933 82.3379 74.4609C82.2643 74.3943 82.1861 74.333 82.1039 74.2775C65.296 62.6288 48.6665 50.6222 31.6424 39.3063C25.8918 35.4837 19.3025 34.0127 13.5369 38.8627C11.0264 41.0367 9.20309 43.8945 8.28939 47.0874C7.37569 50.2802 7.41115 53.67 8.3915 56.843ZM22.1389 45.8577C24.7384 45.864 28.2829 49.4108 30.26 50.7782C33.2391 52.8463 36.2295 54.9057 39.2085 56.9738C49.1032 63.8221 58.9904 70.6763 68.8699 77.5363C50.6532 79.9566 29.3916 73.435 19.8546 57.7206C18.0874 54.8378 16.0885 45.8313 22.0933 45.8931L22.1389 45.8577Z" fill="#009460"/>
<path d="M67.0449 32.2712C64.9199 41.5434 70.9111 52.1588 76.9413 58.7605C83.6881 66.0853 92.7897 70.8124 102.662 72.1192C106.341 72.62 107.008 67.7701 104.458 65.9714L104.343 65.8234C98.2596 53.7267 92.4101 41.4845 86.0863 29.5017C83.9497 25.4627 80.6316 22.4889 75.7046 23.5073C73.5706 23.9793 71.6183 25.0574 70.0822 26.612C68.546 28.1666 67.4914 30.1317 67.0449 32.2712ZM78.5206 30.252C80.0208 31.0767 80.9595 34.2568 81.6856 35.6837C82.7647 37.8227 83.8412 39.982 84.8861 42.1476L95.6211 63.4898C84.2958 59.1247 73.9646 48.6143 73.3989 36.4466C73.2989 34.2039 75.0103 28.323 78.5206 30.252Z" fill="#009460"/>
</svg>
