<svg width="36" height="37" viewBox="0 0 36 37" fill="none" xmlns="http://www.w3.org/2000/svg">
<path d="M34 18.9541C33.4667 18.9541 32.9913 18.7621 32.574 18.3781C32.1567 17.9941 31.916 17.5194 31.852 16.9541C31.4187 13.8541 30.11 11.2121 27.926 9.0281C25.742 6.8441 23.1 5.5361 20 5.1041C19.4333 5.03743 18.958 4.8041 18.574 4.4041C18.19 4.0041 17.9987 3.52077 18 2.9541C18 2.38743 18.2 1.9121 18.6 1.5281C19 1.1441 19.4667 0.986101 20 1.0541C24.2 1.52077 27.7833 3.23743 30.75 6.2041C33.7167 9.17077 35.4333 12.7541 35.9 16.9541C35.9667 17.4874 35.808 17.9541 35.424 18.3541C35.04 18.7541 34.5653 18.9541 34 18.9541ZM25.65 18.9541C25.2167 18.9541 24.8333 18.8041 24.5 18.5041C24.1667 18.2041 23.9167 17.8041 23.75 17.3041C23.4833 16.3374 22.9747 15.4788 22.224 14.7281C21.4733 13.9774 20.6153 13.4694 19.65 13.2041C19.15 13.0374 18.75 12.7874 18.45 12.4541C18.15 12.1208 18 11.7208 18 11.2541C18 10.5874 18.2333 10.0454 18.7 9.6281C19.1667 9.21077 19.6833 9.06944 20.25 9.2041C22.1167 9.63743 23.7253 10.5294 25.076 11.8801C26.4267 13.2308 27.318 14.8388 27.75 16.7041C27.8833 17.2708 27.7333 17.7874 27.3 18.2541C26.8667 18.7208 26.3167 18.9541 25.65 18.9541ZM33.9 36.9541C29.6 36.9541 25.408 35.9954 21.324 34.0781C17.24 32.1608 13.6233 29.6274 10.474 26.4781C7.32467 23.3288 4.79133 19.7121 2.874 15.6281C0.956668 11.5441 -0.00133194 7.35277 1.38985e-06 3.0541C1.38985e-06 2.4541 0.200001 1.9541 0.600001 1.5541C1 1.1541 1.5 0.954102 2.1 0.954102H10.2C10.6667 0.954102 11.0833 1.1041 11.45 1.4041C11.8167 1.7041 12.0333 2.08743 12.1 2.5541L13.4 9.5541C13.4667 10.0208 13.458 10.4461 13.374 10.8301C13.29 11.2141 13.0987 11.5554 12.8 11.8541L8 16.7541C9.4 19.1541 11.15 21.4041 13.25 23.5041C15.35 25.6041 17.6667 27.4208 20.2 28.9541L24.9 24.2541C25.2 23.9541 25.592 23.7294 26.076 23.5801C26.56 23.4308 27.0347 23.3888 27.5 23.4541L34.4 24.8541C34.8667 24.9541 35.25 25.1794 35.55 25.5301C35.85 25.8808 36 26.2888 36 26.7541V34.8541C36 35.4541 35.8 35.9541 35.4 36.3541C35 36.7541 34.5 36.9541 33.9 36.9541Z" fill="#9F40FE"/>
</svg>
