<svg width="130" height="137" viewBox="0 0 130 137" fill="none" xmlns="http://www.w3.org/2000/svg">
<path d="M8.9188 73.1275C9.95136 75.9822 11.6525 78.541 13.8842 80.5963C16.116 82.6516 18.8156 84.1457 21.7641 84.9573C24.7345 85.6721 27.8755 85.4427 30.7476 84.3009C33.6197 83.1592 36.0792 81.1623 37.7823 78.5895C39.939 75.7825 41.0598 72.3385 40.9524 68.8484C40.8449 65.3584 39.516 62.0399 37.1936 59.4624C36.8596 59.1722 36.4687 58.9528 36.0443 58.8173C35.6199 58.6817 35.1705 58.6329 34.723 58.6735C34.2754 58.7142 33.8387 58.8436 33.4388 59.054C33.039 59.2643 32.6842 59.5515 32.3954 59.8983C32.1066 60.2451 31.8898 60.6445 31.7578 61.0728C31.6258 61.5011 31.5814 61.9495 31.6271 62.3915C31.6728 62.8334 31.8077 63.2599 32.0239 63.6455C32.24 64.0311 32.533 64.368 32.8854 64.6362C32.4592 64.0327 33.0376 64.8518 33.0833 64.9165C33.1289 64.9811 33.3724 65.326 33.5094 65.52C33.5852 65.6061 33.6516 65.7 33.7073 65.8003C33.8072 66.013 33.8951 66.2313 33.9707 66.4541L34.1581 67.0002L34.2405 67.4911C34.3161 68.0192 34.3543 68.5413 34.3858 69.1005C34.3708 69.3833 34.3382 69.6652 34.2881 69.9447C34.2179 70.4493 34.1194 70.9502 33.9931 71.4451L33.8609 71.5385L33.7286 71.6319L33.5076 72.2079C33.2646 72.7994 32.9691 73.3633 32.6956 73.9117L32.5413 74.0207L32.387 74.1297L32.0238 74.6445C31.6818 75.1074 31.3064 75.5452 30.9005 75.9545L30.5919 76.1724L30.129 76.4992L28.8504 77.402L28.4536 77.6822L27.6044 78.0234L27.2957 78.2413C27.089 78.2671 26.8837 78.3042 26.6806 78.3526C26.1911 78.4288 25.6969 78.4644 25.2032 78.459L24.8609 78.4422C24.5029 78.4102 24.1474 78.3593 23.7955 78.29L23.0571 78.1331C22.5763 77.9641 22.1065 77.7674 21.6499 77.5438C21.3655 77.4217 21.0879 77.2623 20.8255 77.1246C20.3065 76.7956 19.8091 76.4348 19.336 76.0443C19.1533 75.7857 18.8756 75.6264 18.6269 75.4144L18.3529 75.0264C18.2464 74.8755 18.0485 74.5953 18.0637 74.6169C18.079 74.6384 17.6985 74.0995 17.5158 73.8409C17.3332 73.5822 16.907 72.9786 16.6026 72.5475C16.4701 72.3829 16.3481 72.2102 16.2374 72.0302C16.1156 71.8577 15.9938 71.6853 15.8721 71.5128C15.7503 71.3404 15.4921 70.5537 15.3352 70.0507C15.1783 69.5478 15.1783 69.5477 15.1143 69.2699C15.0432 69.1913 14.9819 69.1045 14.9316 69.0113C14.8372 68.5345 14.7721 68.0518 14.737 67.5659L14.6992 66.6235L14.5927 66.4726L14.6116 66.2655C14.6767 65.7027 14.7486 65.1027 14.873 64.5303C14.9432 64.1838 15.0319 63.8409 15.1386 63.503L15.1948 63.3017L15.305 63.2239C15.5192 62.6851 15.7334 62.1463 16.0068 61.5979L16.4178 60.8231L16.7574 60.228C17.5594 59.0396 18.4885 57.9394 19.5282 56.9472L19.8148 56.7449C20.1675 56.4959 20.4982 56.2624 20.8509 56.0133C21.4228 55.5611 22.0189 55.1402 22.6365 54.7526C22.8634 54.5604 23.1069 54.3885 23.3639 54.239C23.7166 53.9899 23.7607 53.9588 23.5182 54.13L23.9592 53.8187C24.6305 53.5062 25.2949 53.2309 25.9746 52.9771C27.2357 52.5043 28.5556 52.2143 29.8927 52.1165C30.7784 52.0308 31.601 51.6001 32.1795 50.919C32.758 50.238 33.045 49.3624 32.9774 48.4849C32.9097 47.6074 32.493 46.7999 31.8189 46.24C31.1448 45.68 30.2685 45.4136 29.3827 45.4993C16.2934 46.8919 4.0702 59.8508 8.9188 73.1275Z" fill="#2C6AE4"/>
<path d="M85.5296 29.4428C82.6624 29.9903 79.9513 31.1837 77.5953 32.9353C75.2393 34.6868 73.2983 36.9521 71.9148 39.5648C70.5228 42.2292 69.8616 45.2245 70.0004 48.2362C70.1393 51.2478 71.0731 54.1647 72.7039 56.6805C74.5055 59.6215 77.1055 61.969 80.1909 63.4404C83.2763 64.9119 86.7155 65.4446 90.0946 64.9745C90.9329 64.7519 91.6538 64.2066 92.1045 63.4539C92.5553 62.7012 92.7005 61.8001 92.5097 60.9413C92.3188 60.0826 91.8067 59.3335 91.0818 58.8527C90.3568 58.3718 89.4759 58.1968 88.6254 58.3648C86.7907 58.5478 84.9413 58.2445 83.2575 57.4845C81.5737 56.7244 80.1128 55.5336 79.0172 54.028C77.8012 52.5905 77.0078 50.8338 76.7274 48.9583C76.4471 47.0828 76.6911 45.1641 77.4317 43.4214C78.2243 41.6941 79.3812 40.165 80.8202 38.9429C82.2591 37.7207 83.9447 36.8356 85.7571 36.3504C87.5932 35.8402 89.526 35.8124 91.3741 36.2697C93.2223 36.727 94.9251 37.6543 96.323 38.9647C98.046 40.4796 99.3819 42.3969 100.216 44.5525C101.051 46.7082 101.359 49.0381 101.115 51.3429C101.082 52.2395 101.397 53.1128 101.992 53.7742C102.587 54.4357 103.415 54.8323 104.296 54.8786C105.174 54.8968 106.026 54.5703 106.674 53.967C107.323 53.3636 107.718 52.5298 107.778 51.6387C109.131 39.2073 98.0724 27.2297 85.5296 29.4428Z" fill="#2C6AE4"/>
<path d="M71.5913 85.8956C68.4316 85.7967 65.2926 86.3764 62.385 87.5955C59.4774 88.8147 56.8683 90.6453 54.7326 92.9646C52.6239 95.3464 51.1222 98.207 50.3546 101.304C49.587 104.402 49.576 107.645 50.3225 110.76C50.8229 112.542 51.6795 114.205 52.84 115.649C54.0006 117.093 55.4406 118.287 57.0722 119.158C58.7037 120.028 60.4925 120.558 62.3293 120.713C64.166 120.869 66.0121 120.647 67.7548 120.063C71.1615 118.945 69.241 113.686 65.8497 114.807C64.8525 115.136 63.7981 115.263 62.7482 115.179C61.6983 115.095 60.6739 114.802 59.735 114.318C58.796 113.833 57.9614 113.166 57.2797 112.357C56.598 111.547 56.083 110.61 55.7648 109.601C54.4079 105.41 55.8817 100.439 58.5481 97.1183C64.0155 90.3408 76.1842 89.0347 81.5415 96.5645C82.9059 98.3732 83.7212 100.536 83.8884 102.79C84.0557 105.044 83.5678 107.294 82.4838 109.266C82.1888 109.939 82.1702 110.703 82.4322 111.395C82.6941 112.086 83.2156 112.648 83.8842 112.961C84.5591 113.25 85.3169 113.27 86.0015 113.016C86.6861 112.762 87.2454 112.253 87.5641 111.595C90.5928 106.403 89.8729 99.844 86.9447 94.7352C85.3461 92.0708 83.0941 89.8582 80.4053 88.3101C77.7164 86.7621 74.6812 85.9306 71.5913 85.8956Z" fill="#2C6AE4"/>
</svg>
