<svg width="46" height="46" viewBox="0 0 46 46" fill="none" xmlns="http://www.w3.org/2000/svg">
<path d="M38.0046 12.5642L27.4246 1.84377C26.8645 1.26041 26.1942 0.796622 25.4534 0.479908C24.7126 0.163194 23.9165 0 23.1121 0C22.3078 0 21.5116 0.163194 20.7708 0.479908C20.0301 0.796622 19.3597 1.26041 18.7996 1.84377L8.19093 12.5642L23.0546 20.0598L38.0046 12.5642ZM42.0641 16.8931L44.1628 19.0139C44.7437 19.5778 45.2059 20.2545 45.5216 21.0034C45.8373 21.7522 46 22.5578 46 23.3718C46 24.1858 45.8373 24.9914 45.5216 25.7403C45.2059 26.4891 44.7437 27.1658 44.1628 27.7297L27.2559 44.9832C26.8552 45.3974 26.3888 45.7411 25.8759 46V25.0859L42.0641 16.8931ZM3.93594 16.8931L1.8372 19.0139C1.25631 19.5778 0.794143 20.2545 0.478439 21.0034C0.162735 21.7522 0 22.5578 0 23.3718C0 24.1858 0.162735 24.9914 0.478439 25.7403C0.794143 26.4891 1.25631 27.1658 1.8372 27.7297L18.746 44.9832C19.1485 45.3976 19.6142 45.7424 20.126 46V25.0859L3.93594 16.8931Z" fill="#9F40FE"/>
</svg>
